<svg xmlns="http://www.w3.org/2000/svg" width="1400" height="800" viewBox="0 0 1400 800">
<rect width="1400" height="800" fill="#071016"/><text x="60" y="75" fill="#f2f8f7" font-family="Arial" font-size="42" font-weight="700">CALL OF CHATTY — PROJECT PROGRESS</text>
<text x="60" y="112" fill="#9fb5b3" font-family="Arial" font-size="18">Three.js tactical FPS · engineering maturity snapshot · 2026-09-06</text>
<g font-family="Arial" font-size="20" fill="#dcebe9">
<text x="70" y="180">Core engine</text><text x="70" y="235">Rendering baseline</text><text x="70" y="290">Weapons &amp; combat</text><text x="70" y="345">Physics &amp; movement</text><text x="70" y="400">AI &amp; gameplay</text><text x="70" y="455">Animation &amp; feel</text><text x="70" y="510">Audio &amp; VFX</text><text x="70" y="565">Multiplayer</text><text x="70" y="620">QA / CI</text><text x="70" y="675">Documentation</text></g>
<g fill="#152529">
<rect x="330" y="160" width="850" height="25" rx="12"/><rect x="330" y="215" width="850" height="25" rx="12"/><rect x="330" y="270" width="850" height="25" rx="12"/><rect x="330" y="325" width="850" height="25" rx="12"/><rect x="330" y="380" width="850" height="25" rx="12"/><rect x="330" y="435" width="850" height="25" rx="12"/><rect x="330" y="490" width="850" height="25" rx="12"/><rect x="330" y="545" width="850" height="25" rx="12"/><rect x="330" y="600" width="850" height="25" rx="12"/><rect x="330" y="655" width="850" height="25" rx="12"/></g>
<g fill="#37e7ae"><rect x="330" y="160" width="850" height="25" rx="12"/><rect x="330" y="215" width="808" height="25" rx="12"/><rect x="330" y="270" width="723" height="25" rx="12"/><rect x="330" y="325" width="638" height="25" rx="12"/><rect x="330" y="380" width="595" height="25" rx="12"/><rect x="330" y="435" width="638" height="25" rx="12"/><rect x="330" y="490" width="595" height="25" rx="12"/><rect x="330" y="545" width="510" height="25" rx="12"/><rect x="330" y="600" width="680" height="25" rx="12"/><rect x="330" y="655" width="765" height="25" rx="12"/></g>
<g font-family="Arial" font-size="18" fill="#b8cbc8"><text x="1200" y="181">100%</text><text x="1158" y="236">95%</text><text x="1073" y="291">85%</text><text x="988" y="346">75%</text><text x="945" y="401">70%</text><text x="988" y="456">75%</text><text x="945" y="511">70%</text><text x="860" y="566">60%</text><text x="1030" y="621">80%</text><text x="1115" y="676">90%</text></g>
<text x="60" y="755" fill="#77908c" font-family="Arial" font-size="16">Percentages describe implementation maturity, not commercial AAA parity.</text>
</svg>
